<?xml version="1.0" encoding="UTF-8" standalone="no"?>
<!DOCTYPE svg PUBLIC "-//W3C//DTD SVG 1.1//EN" "http://www.w3.org/Graphics/SVG/1.1/DTD/svg11.dtd">
<svg version="1.1" xmlns="http://www.w3.org/2000/svg" xmlns:xlink="http://www.w3.org/1999/xlink" preserveAspectRatio="xMidYMid meet" viewBox="142.22033898305085 260.01635699999997 67.94087784745759 62.98364300000003" width="16" height="14.76"><defs><path d="M199.22 284.57L199.51 284.58L199.8 284.59L200.09 284.61L200.37 284.65L200.65 284.69L200.93 284.74L201.2 284.79L201.47 284.86L201.74 284.94L202 285.02L202.25 285.11L202.51 285.21L202.76 285.31L203 285.43L203.24 285.55L203.48 285.68L203.7 285.81L203.93 285.95L204.15 286.1L204.36 286.26L204.57 286.42L204.77 286.59L204.96 286.76L205.15 286.94L205.33 287.12L205.51 287.31L205.68 287.51L205.84 287.71L205.99 287.92L206.14 288.13L206.28 288.34L206.41 288.57L206.53 288.79L206.65 289.02L206.75 289.25L206.85 289.49L206.94 289.73L207.03 289.98L207.1 290.22L207.16 290.47L207.1 290.73L207.03 290.97L206.94 291.22L206.85 291.46L206.75 291.7L206.65 291.93L206.53 292.16L206.41 292.38L206.28 292.6L206.14 292.82L205.99 293.03L205.84 293.24L205.68 293.44L205.51 293.64L205.33 293.83L205.15 294.01L204.96 294.19L204.77 294.36L204.57 294.53L204.36 294.69L204.15 294.85L203.93 295L203.7 295.14L203.47 295.27L203.24 295.4L203 295.52L202.76 295.64L202.51 295.74L202.25 295.84L202 295.93L201.73 296.02L201.47 296.09L201.2 296.16L200.93 296.22L200.65 296.27L200.37 296.31L200.09 296.34L199.8 296.36L199.51 296.38L199.22 296.38L186.58 296.38L164.59 320L160.32 320L167.65 296.38L152.84 296.38L143.22 308.19L143.22 272.66L152.86 284.57L167.63 284.57L160.23 261.02L164.25 261.02L186.52 284.57L199.22 284.57Z" id="a6eHfep8Zx"></path></defs><g><g><use xlink:href="#a6eHfep8Zx" opacity="1" fill="#f7f7f7" fill-opacity="1"></use><g><use xlink:href="#a6eHfep8Zx" opacity="1" fill-opacity="0" stroke="#000000" stroke-width="1" stroke-opacity="1"></use></g></g></g></svg>