<?xml version="1.0" encoding="UTF-8" standalone="no"?>
<!DOCTYPE svg PUBLIC "-//W3C//DTD SVG 1.1//EN" "http://www.w3.org/Graphics/SVG/1.1/DTD/svg11.dtd">
<svg version="1.1" xmlns="http://www.w3.org/2000/svg" xmlns:xlink="http://www.w3.org/1999/xlink" preserveAspectRatio="xMidYMid meet" viewBox="347.82608695652186 120.28985507246377 29.144927536231876 44.84057971014495" width="25.14" height="40.84"><defs><path d="M363.79 121.48L364.9 121.71L365.94 122.03L366.91 122.43L367.82 122.91L368.67 123.46L369.46 124.09L370.18 124.78L370.84 125.54L371.44 126.35L371.97 127.23L372.44 128.15L372.85 129.13L373.19 130.15L373.47 131.21L373.69 132.31L373.85 133.44L373.94 134.6L373.97 135.79L373.94 136.62L373.85 137.5L373.69 138.43L373.47 139.41L373.19 140.44L372.84 141.53L372.43 142.66L371.96 143.85L371.43 145.09L370.83 146.38L370.17 147.73L369.44 149.12L368.66 150.57L367.81 152.06L366.9 153.61L365.92 155.21L364.89 156.86L363.79 158.57L362.62 160.32L361.4 162.13L361.37 162.09L361.28 161.96L361.14 161.75L360.95 161.47L360.72 161.11L360.44 160.69L360.12 160.2L359.76 159.65L359.37 159.05L358.96 158.39L358.51 157.68L358.04 156.93L357.56 156.13L357.05 155.3L356.54 154.44L356.01 153.54L355.48 152.62L354.95 151.68L354.42 150.72L353.89 149.75L353.49 148.99L353.1 148.23L352.71 147.46L352.33 146.7L351.97 145.93L351.61 145.17L351.27 144.41L350.95 143.66L350.64 142.92L350.35 142.19L350.08 141.47L349.84 140.76L349.61 140.07L349.41 139.39L349.24 138.74L349.1 138.1L348.98 137.49L348.9 136.9L348.84 136.33L348.83 135.79L348.86 134.6L348.95 133.44L349.11 132.31L349.33 131.21L349.61 130.15L349.95 129.13L350.36 128.15L350.83 127.23L351.36 126.35L351.96 125.54L352.62 124.78L353.34 124.09L354.12 123.46L354.97 122.91L355.88 122.43L356.86 122.03L357.9 121.71L359 121.48L360.17 121.34L361.4 121.29L362.63 121.34L363.79 121.48ZM358.79 126.51L357.65 127.2L356.66 128.11L355.84 129.2L355.22 130.47L354.83 131.86L354.69 133.36L354.83 134.85L355.22 136.25L355.84 137.51L356.66 138.61L357.65 139.51L358.79 140.2L360.05 140.63L361.4 140.78L362.97 139.94L364.33 139.07L365.48 138.18L366.43 137.26L367.16 136.32L367.68 135.36L368 134.37L368.1 133.36L367.97 131.86L367.58 130.47L366.96 129.2L366.14 128.11L365.15 127.2L364.01 126.51L362.75 126.08L361.4 125.93L360.05 126.08L358.79 126.51Z" id="a2MQrsvsRY"></path></defs><g><g><use xlink:href="#a2MQrsvsRY" opacity="1" fill="#ffff00" fill-opacity="100"></use><g><use xlink:href="#a2MQrsvsRY" opacity="1" fill-opacity="0" stroke="#000000" stroke-width="1" stroke-opacity="0"></use></g></g></g></svg>