<?xml version="1.0" encoding="UTF-8" standalone="no"?>
<!DOCTYPE svg PUBLIC "-//W3C//DTD SVG 1.1//EN" "http://www.w3.org/Graphics/SVG/1.1/DTD/svg11.dtd">
<svg version="1.1" xmlns="http://www.w3.org/2000/svg" xmlns:xlink="http://www.w3.org/1999/xlink" preserveAspectRatio="xMidYMid meet" viewBox="242.60869565217402 120.28985507246377 29.144927536231847 44.84057971014495" width="25.14" height="40.84"><defs><path d="M258.58 121.48L259.68 121.71L260.72 122.03L261.69 122.43L262.61 122.91L263.46 123.46L264.24 124.09L264.96 124.78L265.62 125.54L266.22 126.35L266.75 127.23L267.22 128.15L267.63 129.13L267.97 130.15L268.25 131.21L268.47 132.31L268.63 133.44L268.72 134.6L268.75 135.79L268.72 136.62L268.63 137.5L268.47 138.43L268.25 139.41L267.97 140.44L267.62 141.53L267.21 142.66L266.74 143.85L266.21 145.09L265.61 146.38L264.95 147.73L264.23 149.12L263.44 150.57L262.59 152.06L261.68 153.61L260.71 155.21L259.67 156.86L258.57 158.57L257.41 160.32L256.18 162.13L256.15 162.09L256.07 161.96L255.93 161.75L255.74 161.47L255.5 161.11L255.22 160.69L254.9 160.2L254.54 159.65L254.16 159.05L253.74 158.39L253.29 157.68L252.83 156.93L252.34 156.13L251.84 155.3L251.32 154.44L250.8 153.54L250.27 152.62L249.73 151.68L249.2 150.72L248.68 149.75L248.28 148.99L247.88 148.23L247.49 147.46L247.12 146.7L246.75 145.93L246.4 145.17L246.06 144.41L245.73 143.66L245.42 142.92L245.13 142.19L244.87 141.47L244.62 140.76L244.39 140.07L244.2 139.39L244.02 138.74L243.88 138.1L243.76 137.49L243.68 136.9L243.63 136.33L243.61 135.79L243.64 134.6L243.73 133.44L243.89 132.31L244.11 131.21L244.39 130.15L244.73 129.13L245.14 128.15L245.61 127.23L246.14 126.35L246.74 125.54L247.4 124.78L248.12 124.09L248.91 123.46L249.76 122.91L250.67 122.43L251.64 122.03L252.68 121.71L253.78 121.48L254.95 121.34L256.18 121.29L257.41 121.34L258.58 121.48ZM253.57 126.51L252.43 127.2L251.44 128.11L250.62 129.2L250 130.47L249.61 131.86L249.48 133.36L249.61 134.85L250 136.25L250.62 137.51L251.44 138.61L252.43 139.51L253.57 140.2L254.83 140.63L256.18 140.78L257.75 139.94L259.11 139.07L260.27 138.18L261.21 137.26L261.94 136.32L262.47 135.36L262.78 134.37L262.89 133.36L262.75 131.86L262.36 130.47L261.74 129.2L260.92 128.11L259.93 127.2L258.79 126.51L257.53 126.08L256.18 125.93L254.83 126.08L253.57 126.51Z" id="aGTol9SWY"></path></defs><g><g><use xlink:href="#aGTol9SWY" opacity="1" fill="#0000ff" fill-opacity="100"></use><g><use xlink:href="#aGTol9SWY" opacity="1" fill-opacity="0" stroke="#000000" stroke-width="1" stroke-opacity="0"></use></g></g></g></svg>