<?xml version="1.0" encoding="UTF-8" standalone="no"?>
<!DOCTYPE svg PUBLIC "-//W3C//DTD SVG 1.1//EN" "http://www.w3.org/Graphics/SVG/1.1/DTD/svg11.dtd">
<svg version="1.1" xmlns="http://www.w3.org/2000/svg" xmlns:xlink="http://www.w3.org/1999/xlink" preserveAspectRatio="xMidYMid meet" viewBox="135.94202898550733 120.28985507246375 29.144927536231876 44.84057971014494" width="25.14" height="40.84"><defs><path d="M151.91 121.48L153.01 121.71L154.05 122.03L155.03 122.43L155.94 122.91L156.79 123.46L157.57 124.09L158.3 124.78L158.96 125.54L159.55 126.35L160.08 127.23L160.55 128.15L160.96 129.13L161.31 130.15L161.59 131.21L161.81 132.31L161.96 133.44L162.06 134.6L162.09 135.79L162.06 136.62L161.96 137.5L161.8 138.43L161.58 139.41L161.3 140.44L160.96 141.53L160.55 142.66L160.08 143.85L159.54 145.09L158.94 146.38L158.28 147.73L157.56 149.12L156.78 150.57L155.93 152.06L155.01 153.61L154.04 155.21L153 156.86L151.9 158.57L150.74 160.32L149.51 162.13L149.48 162.09L149.4 161.96L149.26 161.75L149.07 161.47L148.83 161.11L148.55 160.69L148.23 160.2L147.88 159.65L147.49 159.05L147.07 158.39L146.63 157.68L146.16 156.93L145.67 156.13L145.17 155.3L144.66 154.44L144.13 153.54L143.6 152.62L143.07 151.68L142.54 150.72L142.01 149.75L141.61 148.99L141.21 148.23L140.83 147.46L140.45 146.7L140.08 145.93L139.73 145.17L139.39 144.41L139.06 143.66L138.76 142.92L138.47 142.19L138.2 141.47L137.95 140.76L137.73 140.07L137.53 139.39L137.36 138.74L137.21 138.1L137.1 137.49L137.01 136.9L136.96 136.33L136.94 135.79L136.97 134.6L137.07 133.44L137.22 132.31L137.44 131.21L137.72 130.15L138.07 129.13L138.47 128.15L138.94 127.23L139.48 126.35L140.07 125.54L140.73 124.78L141.45 124.09L142.24 123.46L143.09 122.91L144 122.43L144.98 122.03L146.02 121.71L147.12 121.48L148.28 121.34L149.51 121.29L150.74 121.34L151.91 121.48ZM146.9 126.51L145.77 127.2L144.77 128.11L143.95 129.2L143.34 130.47L142.95 131.86L142.81 133.36L142.95 134.85L143.34 136.25L143.95 137.51L144.77 138.61L145.77 139.51L146.9 140.2L148.16 140.63L149.51 140.78L151.09 139.94L152.45 139.07L153.6 138.18L154.54 137.26L155.28 136.32L155.8 135.36L156.12 134.37L156.22 133.36L156.08 131.86L155.69 130.47L155.07 129.2L154.26 128.11L153.26 127.2L152.12 126.51L150.87 126.08L149.51 125.93L148.16 126.08L146.9 126.51Z" id="cp7Qub2nk"></path></defs><g><g><use xlink:href="#cp7Qub2nk" opacity="1" fill="#ff0000" fill-opacity="1"></use><g><use xlink:href="#cp7Qub2nk" opacity="1" fill-opacity="0" stroke="#000000" stroke-width="1" stroke-opacity="0"></use></g></g></g></svg>