<?xml version="1.0" encoding="UTF-8" standalone="no"?>
<!DOCTYPE svg PUBLIC "-//W3C//DTD SVG 1.1//EN" "http://www.w3.org/Graphics/SVG/1.1/DTD/svg11.dtd">
<svg version="1.1" xmlns="http://www.w3.org/2000/svg" xmlns:xlink="http://www.w3.org/1999/xlink" preserveAspectRatio="xMidYMid meet" viewBox="565.1598152190517 304.02554654875945 29.144927536231876 44.84057971014494" width="25.14" height="40.84"><defs><path d="M581.13 305.22L582.23 305.45L583.27 305.76L584.25 306.17L585.16 306.64L586.01 307.2L586.79 307.82L587.51 308.52L588.17 309.27L588.77 310.09L589.3 310.96L589.77 311.89L590.18 312.86L590.52 313.88L590.8 314.94L591.02 316.04L591.18 317.18L591.27 318.34L591.3 319.53L591.27 320.36L591.18 321.23L591.02 322.16L590.8 323.15L590.52 324.18L590.17 325.26L589.76 326.4L589.29 327.59L588.76 328.83L588.16 330.12L587.5 331.46L586.78 332.86L585.99 334.3L585.14 335.8L584.23 337.35L583.26 338.95L582.22 340.6L581.12 342.3L579.96 344.06L578.73 345.87L578.7 345.82L578.62 345.7L578.48 345.49L578.29 345.21L578.05 344.85L577.77 344.43L577.45 343.94L577.1 343.39L576.71 342.78L576.29 342.12L575.84 341.42L575.38 340.66L574.89 339.87L574.39 339.04L573.87 338.17L573.35 337.28L572.82 336.36L572.29 335.42L571.75 334.46L571.23 333.48L570.83 332.72L570.43 331.96L570.05 331.2L569.67 330.43L569.3 329.67L568.95 328.91L568.61 328.15L568.28 327.4L567.97 326.66L567.69 325.93L567.42 325.2L567.17 324.5L566.95 323.8L566.75 323.13L566.57 322.47L566.43 321.84L566.31 321.22L566.23 320.63L566.18 320.07L566.16 319.53L566.19 318.34L566.28 317.18L566.44 316.04L566.66 314.94L566.94 313.88L567.29 312.86L567.69 311.89L568.16 310.96L568.7 310.09L569.29 309.27L569.95 308.52L570.67 307.82L571.46 307.2L572.31 306.64L573.22 306.17L574.19 305.76L575.23 305.45L576.34 305.22L577.5 305.07L578.73 305.03L579.96 305.07L581.13 305.22ZM568.69 314.9L573.71 319.8L572.53 326.71L578.73 323.44L584.94 326.71L583.75 319.8L588.77 314.9L581.84 313.89L578.73 307.61L575.63 313.89L568.69 314.9Z" id="gWtk6alCZ"></path></defs><g><g><use xlink:href="#gWtk6alCZ" opacity="1" fill="#892be2" fill-opacity="100"></use><g><use xlink:href="#gWtk6alCZ" opacity="1" fill-opacity="0" stroke="#000000" stroke-width="1" stroke-opacity="0"></use></g></g></g></svg>