<?xml version="1.0" encoding="UTF-8" standalone="no"?>
<!DOCTYPE svg PUBLIC "-//W3C//DTD SVG 1.1//EN" "http://www.w3.org/Graphics/SVG/1.1/DTD/svg11.dtd">
<svg version="1.1" xmlns="http://www.w3.org/2000/svg" xmlns:xlink="http://www.w3.org/1999/xlink" preserveAspectRatio="xMidYMid meet" viewBox="187.82608695652183 120.28985507246377 29.144927536231847 44.84057971014495" width="25.14" height="40.84"><defs><path d="M203.79 121.48L204.9 121.71L205.94 122.03L206.91 122.43L207.82 122.91L208.67 123.46L209.46 124.09L210.18 124.78L210.84 125.54L211.44 126.35L211.97 127.23L212.44 128.15L212.85 129.13L213.19 130.15L213.47 131.21L213.69 132.31L213.85 133.44L213.94 134.6L213.97 135.79L213.94 136.62L213.85 137.5L213.69 138.43L213.47 139.41L213.19 140.44L212.84 141.53L212.43 142.66L211.96 143.85L211.43 145.09L210.83 146.38L210.17 147.73L209.44 149.12L208.66 150.57L207.81 152.06L206.9 153.61L205.92 155.21L204.89 156.86L203.79 158.57L202.62 160.32L201.4 162.13L201.37 162.09L201.28 161.96L201.14 161.75L200.95 161.47L200.72 161.11L200.44 160.69L200.12 160.2L199.76 159.65L199.37 159.05L198.96 158.39L198.51 157.68L198.04 156.93L197.56 156.13L197.05 155.3L196.54 154.44L196.01 153.54L195.48 152.62L194.95 151.68L194.42 150.72L193.89 149.75L193.49 148.99L193.1 148.23L192.71 147.46L192.33 146.7L191.97 145.93L191.61 145.17L191.27 144.41L190.95 143.66L190.64 142.92L190.35 142.19L190.08 141.47L189.84 140.76L189.61 140.07L189.41 139.39L189.24 138.74L189.1 138.1L188.98 137.49L188.9 136.9L188.84 136.33L188.83 135.79L188.86 134.6L188.95 133.44L189.11 132.31L189.33 131.21L189.61 130.15L189.95 129.13L190.36 128.15L190.83 127.23L191.36 126.35L191.96 125.54L192.62 124.78L193.34 124.09L194.12 123.46L194.97 122.91L195.88 122.43L196.86 122.03L197.9 121.71L199 121.48L200.17 121.34L201.4 121.29L202.63 121.34L203.79 121.48ZM198.79 126.51L197.65 127.2L196.66 128.11L195.84 129.2L195.22 130.47L194.83 131.86L194.69 133.36L194.83 134.85L195.22 136.25L195.84 137.51L196.66 138.61L197.65 139.51L198.79 140.2L200.05 140.63L201.4 140.78L202.97 139.94L204.33 139.07L205.48 138.18L206.43 137.26L207.16 136.32L207.68 135.36L208 134.37L208.1 133.36L207.97 131.86L207.58 130.47L206.96 129.2L206.14 128.11L205.15 127.2L204.01 126.51L202.75 126.08L201.4 125.93L200.05 126.08L198.79 126.51Z" id="anhacOl2i"></path></defs><g><g><use xlink:href="#anhacOl2i" opacity="1" fill="#00ff00" fill-opacity="100"></use><g><use xlink:href="#anhacOl2i" opacity="1" fill-opacity="0" stroke="#000000" stroke-width="1" stroke-opacity="0"></use></g></g></g></svg>