<?xml version="1.0" encoding="UTF-8" standalone="no"?>
<!DOCTYPE svg PUBLIC "-//W3C//DTD SVG 1.1//EN" "http://www.w3.org/Graphics/SVG/1.1/DTD/svg11.dtd">
<svg version="1.1" xmlns="http://www.w3.org/2000/svg" xmlns:xlink="http://www.w3.org/1999/xlink" preserveAspectRatio="xMidYMid meet" viewBox="506.1672514571404 302.7530464844211 29.144927536231876 44.84057971014494" width="25.14" height="40.84"><defs><path d="M522.14 303.94L523.24 304.17L524.28 304.49L525.25 304.89L526.17 305.37L527.01 305.93L527.8 306.55L528.52 307.24L529.18 308L529.78 308.82L530.31 309.69L530.78 310.62L531.19 311.59L531.53 312.61L531.81 313.67L532.03 314.77L532.19 315.9L532.28 317.07L532.31 318.26L532.28 319.08L532.19 319.96L532.03 320.89L531.81 321.87L531.53 322.91L531.18 323.99L530.77 325.13L530.3 326.32L529.77 327.55L529.17 328.85L528.51 330.19L527.79 331.58L527 333.03L526.15 334.53L525.24 336.08L524.27 337.68L523.23 339.33L522.13 341.03L520.97 342.79L519.74 344.59L519.71 344.55L519.62 344.42L519.48 344.22L519.29 343.93L519.06 343.58L518.78 343.15L518.46 342.67L518.1 342.12L517.71 341.51L517.3 340.85L516.85 340.14L516.38 339.39L515.9 338.6L515.4 337.77L514.88 336.9L514.36 336.01L513.83 335.09L513.29 334.14L512.76 333.18L512.23 332.21L511.83 331.45L511.44 330.69L511.05 329.93L510.68 329.16L510.31 328.4L509.95 327.63L509.61 326.88L509.29 326.13L508.98 325.39L508.69 324.65L508.42 323.93L508.18 323.22L507.95 322.53L507.75 321.86L507.58 321.2L507.44 320.56L507.32 319.95L507.24 319.36L507.18 318.79L507.17 318.26L507.2 317.07L507.29 315.9L507.45 314.77L507.67 313.67L507.95 312.61L508.29 311.59L508.7 310.62L509.17 309.69L509.7 308.82L510.3 308L510.96 307.24L511.68 306.55L512.47 305.93L513.31 305.37L514.23 304.89L515.2 304.49L516.24 304.17L517.34 303.94L518.51 303.8L519.74 303.75L520.97 303.8L522.14 303.94ZM515.78 318.17L519.74 324.25L523.69 318.17L527.65 312.09L511.83 312.09L515.78 318.17Z" id="a159AYetnB"></path></defs><g><g><use xlink:href="#a159AYetnB" opacity="1" fill="#ffa500" fill-opacity="100"></use><g><use xlink:href="#a159AYetnB" opacity="1" fill-opacity="0" stroke="#000000" stroke-width="1" stroke-opacity="0"></use></g></g></g></svg>