<?xml version="1.0" encoding="UTF-8" standalone="no"?>
<!DOCTYPE svg PUBLIC "-//W3C//DTD SVG 1.1//EN" "http://www.w3.org/Graphics/SVG/1.1/DTD/svg11.dtd">
<svg version="1.1" xmlns="http://www.w3.org/2000/svg" xmlns:xlink="http://www.w3.org/1999/xlink" preserveAspectRatio="xMidYMid meet" viewBox="298.8405797101451 120.28985507246371 29.14492753623182 44.84057971014498" width="25.14" height="40.84"><defs><path d="M314.81 121.48L315.91 121.71L316.95 122.03L317.93 122.43L318.84 122.91L319.69 123.46L320.47 124.09L321.2 124.78L321.85 125.54L322.45 126.35L322.98 127.23L323.45 128.15L323.86 129.13L324.2 130.15L324.49 131.21L324.7 132.31L324.86 133.44L324.95 134.6L324.99 135.79L324.95 136.62L324.86 137.5L324.7 138.43L324.48 139.41L324.2 140.44L323.85 141.53L323.45 142.66L322.97 143.85L322.44 145.09L321.84 146.38L321.18 147.73L320.46 149.12L319.67 150.57L318.83 152.06L317.91 153.61L316.94 155.21L315.9 156.86L314.8 158.57L313.64 160.32L312.41 162.13L312.38 162.09L312.3 161.96L312.16 161.75L311.97 161.47L311.73 161.11L311.45 160.69L311.13 160.2L310.78 159.65L310.39 159.05L309.97 158.39L309.53 157.68L309.06 156.93L308.57 156.13L308.07 155.3L307.55 154.44L307.03 153.54L306.5 152.62L305.97 151.68L305.44 150.72L304.91 149.75L304.51 148.99L304.11 148.23L303.73 147.46L303.35 146.7L302.98 145.93L302.63 145.17L302.29 144.41L301.96 143.66L301.66 142.92L301.37 142.19L301.1 141.47L300.85 140.76L300.63 140.07L300.43 139.39L300.25 138.74L300.11 138.1L299.99 137.49L299.91 136.9L299.86 136.33L299.84 135.79L299.87 134.6L299.97 133.44L300.12 132.31L300.34 131.21L300.62 130.15L300.97 129.13L301.37 128.15L301.84 127.23L302.38 126.35L302.97 125.54L303.63 124.78L304.35 124.09L305.14 123.46L305.99 122.91L306.9 122.43L307.87 122.03L308.91 121.71L310.02 121.48L311.18 121.34L312.41 121.29L313.64 121.34L314.81 121.48ZM309.8 126.51L308.66 127.2L307.67 128.11L306.85 129.2L306.23 130.47L305.84 131.86L305.71 133.36L305.84 134.85L306.23 136.25L306.85 137.51L307.67 138.61L308.66 139.51L309.8 140.2L311.06 140.63L312.41 140.78L313.98 139.94L315.35 139.07L316.5 138.18L317.44 137.26L318.18 136.32L318.7 135.36L319.01 134.37L319.12 133.36L318.98 131.86L318.59 130.47L317.97 129.2L317.15 128.11L316.16 127.2L315.02 126.51L313.76 126.08L312.41 125.93L311.06 126.08L309.8 126.51Z" id="b1P4CLr6Fw"></path></defs><g><g><use xlink:href="#b1P4CLr6Fw" opacity="1" fill="#ffa500" fill-opacity="100"></use><g><use xlink:href="#b1P4CLr6Fw" opacity="1" fill-opacity="0" stroke="#000000" stroke-width="1" stroke-opacity="0"></use></g></g></g></svg>