<?xml version="1.0" encoding="UTF-8" standalone="no"?>
<!DOCTYPE svg PUBLIC "-//W3C//DTD SVG 1.1//EN" "http://www.w3.org/Graphics/SVG/1.1/DTD/svg11.dtd">
<svg version="1.1" xmlns="http://www.w3.org/2000/svg" xmlns:xlink="http://www.w3.org/1999/xlink" preserveAspectRatio="xMidYMid meet" viewBox="394.0703385836524 302.75304648442113 29.144927536231876 44.84057971014499" width="25.14" height="40.84"><defs><path d="M410.04 303.94L411.14 304.17L412.18 304.49L413.16 304.89L414.07 305.37L414.92 305.93L415.7 306.55L416.42 307.24L417.08 308L417.68 308.82L418.21 309.69L418.68 310.62L419.09 311.59L419.43 312.61L419.72 313.67L419.93 314.77L420.09 315.9L420.18 317.07L420.22 318.26L420.18 319.08L420.09 319.96L419.93 320.89L419.71 321.87L419.43 322.91L419.08 323.99L418.68 325.13L418.2 326.32L417.67 327.55L417.07 328.85L416.41 330.19L415.69 331.58L414.9 333.03L414.05 334.53L413.14 336.08L412.17 337.68L411.13 339.33L410.03 341.03L408.87 342.79L407.64 344.59L407.61 344.55L407.53 344.42L407.39 344.22L407.2 343.93L406.96 343.58L406.68 343.15L406.36 342.67L406.01 342.12L405.62 341.51L405.2 340.85L404.76 340.14L404.29 339.39L403.8 338.6L403.3 337.77L402.78 336.9L402.26 336.01L401.73 335.09L401.2 334.14L400.66 333.18L400.14 332.21L399.74 331.45L399.34 330.69L398.96 329.93L398.58 329.16L398.21 328.4L397.86 327.63L397.52 326.88L397.19 326.13L396.88 325.39L396.6 324.65L396.33 323.93L396.08 323.22L395.86 322.53L395.66 321.86L395.48 321.2L395.34 320.56L395.22 319.95L395.14 319.36L395.09 318.79L395.07 318.26L395.1 317.07L395.2 315.9L395.35 314.77L395.57 313.67L395.85 312.61L396.2 311.59L396.6 310.62L397.07 309.69L397.61 308.82L398.2 308L398.86 307.24L399.58 306.55L400.37 305.93L401.22 305.37L402.13 304.89L403.1 304.49L404.14 304.17L405.25 303.94L406.41 303.8L407.64 303.75L408.87 303.8L410.04 303.94ZM402.63 308.59L399.83 311.39L404.84 316.38L399.83 321.38L402.63 324.17L407.64 319.18L412.65 324.17L415.46 321.38L410.45 316.38L415.46 311.39L412.65 308.59L407.64 313.59L402.63 308.59Z" id="d4DZUKLhFr"></path></defs><g><g><use xlink:href="#d4DZUKLhFr" opacity="1" fill="#ff0000" fill-opacity="1"></use><g><use xlink:href="#d4DZUKLhFr" opacity="1" fill-opacity="0" stroke="#000000" stroke-width="1" stroke-opacity="0"></use></g></g></g></svg>