<?xml version="1.0" encoding="UTF-8" standalone="no"?>
<!DOCTYPE svg PUBLIC "-//W3C//DTD SVG 1.1//EN" "http://www.w3.org/Graphics/SVG/1.1/DTD/svg11.dtd">
<svg version="1.1" xmlns="http://www.w3.org/2000/svg" xmlns:xlink="http://www.w3.org/1999/xlink" preserveAspectRatio="xMidYMid meet" viewBox="478.56504889048085 302.75304648442113 29.144927536231876 44.84057971014499" width="25.14" height="40.84"><defs><path d="M494.53 303.94L495.64 304.17L496.68 304.49L497.65 304.89L498.56 305.37L499.41 305.93L500.2 306.55L500.92 307.24L501.58 308L502.17 308.82L502.71 309.69L503.18 310.62L503.58 311.59L503.93 312.61L504.21 313.67L504.43 314.77L504.59 315.9L504.68 317.07L504.71 318.26L504.68 319.08L504.58 319.96L504.43 320.89L504.21 321.87L503.92 322.91L503.58 323.99L503.17 325.13L502.7 326.32L502.16 327.55L501.57 328.85L500.91 330.19L500.18 331.58L499.4 333.03L498.55 334.53L497.64 336.08L496.66 337.68L495.63 339.33L494.53 341.03L493.36 342.79L492.14 344.59L492.11 344.55L492.02 344.42L491.88 344.22L491.69 343.93L491.46 343.58L491.18 343.15L490.86 342.67L490.5 342.12L490.11 341.51L489.69 340.85L489.25 340.14L488.78 339.39L488.3 338.6L487.79 337.77L487.28 336.9L486.75 336.01L486.22 335.09L485.69 334.14L485.16 333.18L484.63 332.21L484.23 331.45L483.84 330.69L483.45 329.93L483.07 329.16L482.71 328.4L482.35 327.63L482.01 326.88L481.69 326.13L481.38 325.39L481.09 324.65L480.82 323.93L480.57 323.22L480.35 322.53L480.15 321.86L479.98 321.2L479.83 320.56L479.72 319.95L479.63 319.36L479.58 318.79L479.57 318.26L479.6 317.07L479.69 315.9L479.85 314.77L480.06 313.67L480.35 312.61L480.69 311.59L481.1 310.62L481.57 309.69L482.1 308.82L482.7 308L483.36 307.24L484.08 306.55L484.86 305.93L485.71 305.37L486.62 304.89L487.6 304.49L488.64 304.17L489.74 303.94L490.91 303.8L492.14 303.75L493.37 303.8L494.53 303.94ZM483.85 324.17L500.42 324.17L496.28 315.89L492.14 307.6L487.99 315.89L483.85 324.17Z" id="mZIn2a4uh"></path></defs><g><g><use xlink:href="#mZIn2a4uh" opacity="1" fill="#0000ff" fill-opacity="100"></use><g><use xlink:href="#mZIn2a4uh" opacity="1" fill-opacity="0" stroke="#000000" stroke-width="1" stroke-opacity="0"></use></g></g></g></svg>