<?xml version="1.0" encoding="UTF-8" standalone="no"?>
<!DOCTYPE svg PUBLIC "-//W3C//DTD SVG 1.1//EN" "http://www.w3.org/Graphics/SVG/1.1/DTD/svg11.dtd">
<svg version="1.1" xmlns="http://www.w3.org/2000/svg" xmlns:xlink="http://www.w3.org/1999/xlink" preserveAspectRatio="xMidYMid meet" viewBox="421.50814285597954 302.75304648442113 29.144927536231876 44.84057971014499" width="25.14" height="40.84"><defs><path d="M437.48 303.94L438.58 304.17L439.62 304.49L440.59 304.89L441.51 305.37L442.36 305.93L443.14 306.55L443.86 307.24L444.52 308L445.12 308.82L445.65 309.69L446.12 310.62L446.53 311.59L446.87 312.61L447.15 313.67L447.37 314.77L447.53 315.9L447.62 317.07L447.65 318.26L447.62 319.08L447.53 319.96L447.37 320.89L447.15 321.87L446.87 322.91L446.52 323.99L446.11 325.13L445.64 326.32L445.11 327.55L444.51 328.85L443.85 330.19L443.13 331.58L442.34 333.03L441.49 334.53L440.58 336.08L439.61 337.68L438.57 339.33L437.47 341.03L436.31 342.79L435.08 344.59L435.05 344.55L434.96 344.42L434.83 344.22L434.64 343.93L434.4 343.58L434.12 343.15L433.8 342.67L433.44 342.12L433.06 341.51L432.64 340.85L432.19 340.14L431.73 339.39L431.24 338.6L430.74 337.77L430.22 336.9L429.7 336.01L429.17 335.09L428.63 334.14L428.1 333.18L427.58 332.21L427.17 331.45L426.78 330.69L426.39 329.93L426.02 329.16L425.65 328.4L425.3 327.63L424.96 326.88L424.63 326.13L424.32 325.39L424.03 324.65L423.76 323.93L423.52 323.22L423.29 322.53L423.09 321.86L422.92 321.2L422.78 320.56L422.66 319.95L422.58 319.36L422.53 318.79L422.51 318.26L422.54 317.07L422.63 315.9L422.79 314.77L423.01 313.67L423.29 312.61L423.63 311.59L424.04 310.62L424.51 309.69L425.04 308.82L425.64 308L426.3 307.24L427.02 306.55L427.81 305.93L428.65 305.37L429.57 304.89L430.54 304.49L431.58 304.17L432.68 303.94L433.85 303.8L435.08 303.75L436.31 303.8L437.48 303.94ZM428.76 315.22L425.04 319.3L431.94 326.87L435.66 322.79L435.66 322.79L445.12 312.4L441.4 308.31L431.93 318.7L428.76 315.22Z" id="d4N48R8Lx"></path></defs><g><g><use xlink:href="#d4N48R8Lx" opacity="1" fill="#00ff00" fill-opacity="100"></use><g><use xlink:href="#d4N48R8Lx" opacity="1" fill-opacity="0" stroke="#000000" stroke-width="1" stroke-opacity="0"></use></g></g></g></svg>