<?xml version="1.0" encoding="UTF-8" standalone="no"?>
<!DOCTYPE svg PUBLIC "-//W3C//DTD SVG 1.1//EN" "http://www.w3.org/Graphics/SVG/1.1/DTD/svg11.dtd">
<svg version="1.1" xmlns="http://www.w3.org/2000/svg" xmlns:xlink="http://www.w3.org/1999/xlink" preserveAspectRatio="xMidYMid meet" viewBox="450.21932298020306 302.7530464844212 29.144927536231705 44.84057971014494" width="25.14" height="40.84"><defs><path d="M467.29 304.17L468.33 304.49L469.31 304.89L470.22 305.37L471.07 305.93L471.85 306.55L472.57 307.24L473.23 308L473.83 308.82L474.36 309.69L474.83 310.62L475.24 311.59L475.58 312.61L475.86 313.67L476.08 314.77L476.24 315.9L476.33 317.07L476.36 318.26L476.33 319.08L476.24 319.96L476.08 320.89L475.86 321.87L475.58 322.91L475.23 323.99L474.82 325.13L474.35 326.32L473.82 327.55L473.22 328.85L472.56 330.19L471.84 331.58L471.05 333.03L470.2 334.53L469.29 336.08L468.32 337.68L467.28 339.33L466.18 341.03L465.02 342.79L463.79 344.59L463.7 344.46L463.44 344.07L463.03 343.45L462.48 342.62L461.83 341.6L461.08 340.42L460.25 339.09L459.37 337.63L458.45 336.07L457.51 334.43L456.57 332.73L455.64 330.99L454.76 329.23L453.93 327.48L453.18 325.75L452.53 324.07L451.98 322.46L451.57 320.94L451.31 319.53L451.22 318.26L451.25 317.07L451.34 315.9L451.5 314.77L451.72 313.67L452 312.61L452.34 311.59L452.75 310.62L453.22 309.69L453.75 308.82L454.35 308L455.01 307.24L455.73 306.55L456.52 305.93L457.37 305.37L458.28 304.89L459.25 304.49L460.29 304.17L461.4 303.94L462.56 303.8L463.79 303.75L465.02 303.8L466.19 303.94L466.19 303.94L467.29 304.17Z" id="d1GJx6WZsX"></path></defs><g><g><use xlink:href="#d1GJx6WZsX" opacity="1" fill="#b1adad" fill-opacity="1"></use><g><use xlink:href="#d1GJx6WZsX" opacity="1" fill-opacity="0" stroke="#000000" stroke-width="1" stroke-opacity="0"></use></g></g></g></svg>