<?xml version="1.0" encoding="UTF-8" standalone="no"?>
<!DOCTYPE svg PUBLIC "-//W3C//DTD SVG 1.1//EN" "http://www.w3.org/Graphics/SVG/1.1/DTD/svg11.dtd">
<svg version="1.1" xmlns="http://www.w3.org/2000/svg" xmlns:xlink="http://www.w3.org/1999/xlink" preserveAspectRatio="xMidYMid meet" viewBox="402.60869565217405 120.28985507246377 29.144927536231876 44.84057971014495" width="25.14" height="40.84"><defs><path d="M418.58 121.48L419.68 121.71L420.72 122.03L421.69 122.43L422.61 122.91L423.46 123.46L424.24 124.09L424.96 124.78L425.62 125.54L426.22 126.35L426.75 127.23L427.22 128.15L427.63 129.13L427.97 130.15L428.25 131.21L428.47 132.31L428.63 133.44L428.72 134.6L428.75 135.79L428.72 136.62L428.63 137.5L428.47 138.43L428.25 139.41L427.97 140.44L427.62 141.53L427.21 142.66L426.74 143.85L426.21 145.09L425.61 146.38L424.95 147.73L424.23 149.12L423.44 150.57L422.59 152.06L421.68 153.61L420.71 155.21L419.67 156.86L418.57 158.57L417.41 160.32L416.18 162.13L416.15 162.09L416.07 161.96L415.93 161.75L415.74 161.47L415.5 161.11L415.22 160.69L414.9 160.2L414.54 159.65L414.16 159.05L413.74 158.39L413.29 157.68L412.83 156.93L412.34 156.13L411.84 155.3L411.32 154.44L410.8 153.54L410.27 152.62L409.73 151.68L409.2 150.72L408.68 149.75L408.28 148.99L407.88 148.23L407.49 147.46L407.12 146.7L406.75 145.93L406.4 145.17L406.06 144.41L405.73 143.66L405.42 142.92L405.13 142.19L404.87 141.47L404.62 140.76L404.39 140.07L404.2 139.39L404.02 138.74L403.88 138.1L403.76 137.49L403.68 136.9L403.63 136.33L403.61 135.79L403.64 134.6L403.73 133.44L403.89 132.31L404.11 131.21L404.39 130.15L404.73 129.13L405.14 128.15L405.61 127.23L406.14 126.35L406.74 125.54L407.4 124.78L408.12 124.09L408.91 123.46L409.76 122.91L410.67 122.43L411.64 122.03L412.68 121.71L413.78 121.48L414.95 121.34L416.18 121.29L417.41 121.34L418.58 121.48ZM413.57 126.51L412.43 127.2L411.44 128.11L410.62 129.2L410 130.47L409.61 131.86L409.48 133.36L409.61 134.85L410 136.25L410.62 137.51L411.44 138.61L412.43 139.51L413.57 140.2L414.83 140.63L416.18 140.78L417.75 139.94L419.11 139.07L420.27 138.18L421.21 137.26L421.94 136.32L422.47 135.36L422.78 134.37L422.89 133.36L422.75 131.86L422.36 130.47L421.74 129.2L420.92 128.11L419.93 127.2L418.79 126.51L417.53 126.08L416.18 125.93L414.83 126.08L413.57 126.51Z" id="adsN8R6ci"></path></defs><g><g><use xlink:href="#adsN8R6ci" opacity="1" fill="#8a2be2" fill-opacity="100"></use><g><use xlink:href="#adsN8R6ci" opacity="1" fill-opacity="0" stroke="#000000" stroke-width="1" stroke-opacity="0"></use></g></g></g></svg>