<?xml version="1.0" encoding="UTF-8" standalone="no"?>
<!DOCTYPE svg PUBLIC "-//W3C//DTD SVG 1.1//EN" "http://www.w3.org/Graphics/SVG/1.1/DTD/svg11.dtd">
<svg version="1.1" xmlns="http://www.w3.org/2000/svg" xmlns:xlink="http://www.w3.org/1999/xlink" preserveAspectRatio="xMidYMid meet" viewBox="534.3882360016468 302.75304648442113 29.144927536231876 44.84057971014499" width="25.14" height="40.84"><defs><path d="M550.36 303.94L551.46 304.17L552.5 304.49L553.47 304.89L554.39 305.37L555.24 305.93L556.02 306.55L556.74 307.24L557.4 308L558 308.82L558.53 309.69L559 310.62L559.41 311.59L559.75 312.61L560.03 313.67L560.25 314.77L560.41 315.9L560.5 317.07L560.53 318.26L560.5 319.08L560.41 319.96L560.25 320.89L560.03 321.87L559.75 322.91L559.4 323.99L558.99 325.13L558.52 326.32L557.99 327.55L557.39 328.85L556.73 330.19L556.01 331.58L555.22 333.03L554.37 334.53L553.46 336.08L552.49 337.68L551.45 339.33L550.35 341.03L549.19 342.79L547.96 344.59L547.93 344.55L547.84 344.42L547.71 344.22L547.52 343.93L547.28 343.58L547 343.15L546.68 342.67L546.32 342.12L545.94 341.51L545.52 340.85L545.07 340.14L544.61 339.39L544.12 338.6L543.62 337.77L543.1 336.9L542.58 336.01L542.05 335.09L541.51 334.14L540.98 333.18L540.46 332.21L540.05 331.45L539.66 330.69L539.27 329.93L538.9 329.16L538.53 328.4L538.18 327.63L537.84 326.88L537.51 326.13L537.2 325.39L536.91 324.65L536.64 323.93L536.4 323.22L536.17 322.53L535.97 321.86L535.8 321.2L535.66 320.56L535.54 319.95L535.46 319.36L535.41 318.79L535.39 318.26L535.42 317.07L535.51 315.9L535.67 314.77L535.89 313.67L536.17 312.61L536.51 311.59L536.92 310.62L537.39 309.69L537.92 308.82L538.52 308L539.18 307.24L539.9 306.55L540.69 305.93L541.53 305.37L542.45 304.89L543.42 304.49L544.46 304.17L545.56 303.94L546.73 303.8L547.96 303.75L549.19 303.8L550.36 303.94ZM540.2 322.63L547.96 327.28L555.72 322.63L555.72 313.31L547.96 308.65L540.2 313.31L540.2 322.63Z" id="g5XDek20mj"></path></defs><g><g><use xlink:href="#g5XDek20mj" opacity="1" fill="#e0e01e" fill-opacity="100"></use><g><use xlink:href="#g5XDek20mj" opacity="1" fill-opacity="0" stroke="#000000" stroke-width="1" stroke-opacity="0"></use></g></g></g></svg>